<svg width="40" height="41" viewBox="0 0 40 41" fill="none" xmlns="http://www.w3.org/2000/svg">
<path d="M19.7075 14.536C16.4059 14.536 13.7441 17.2235 13.7441 20.4997C13.7441 23.7759 16.4315 26.4634 19.7075 26.4634C22.9836 26.4634 25.671 23.7759 25.671 20.4997C25.671 17.2235 22.9836 14.536 19.7075 14.536ZM37.6234 20.4997C37.6234 18.0169 37.6234 15.5854 37.4954 13.1027C37.3675 10.236 36.702 7.67646 34.6033 5.60325C32.5046 3.50444 29.9708 2.83896 27.1042 2.71098C24.6216 2.58301 22.1902 2.58301 19.7075 2.58301C17.2249 2.58301 14.7935 2.58301 12.3108 2.71098C9.44429 2.83896 6.88488 3.50444 4.81176 5.60325C2.71304 7.70206 2.0476 10.236 1.91963 13.1027C1.79166 15.5854 1.79166 18.0169 1.79166 20.4997C1.79166 22.9824 1.79166 25.414 1.91963 27.8967C2.0476 30.7634 2.71304 33.3229 4.81176 35.3961C6.91048 37.4949 9.44429 38.1604 12.3108 38.2884C14.7935 38.4163 17.2249 38.4163 19.7075 38.4163C22.1902 38.4163 24.6216 38.4163 27.1042 38.2884C29.9708 38.1604 32.5302 37.4949 34.6033 35.3961C36.702 33.2973 37.3675 30.7634 37.4954 27.8967C37.649 25.4396 37.6234 22.9824 37.6234 20.4997ZM19.7075 29.6884C14.6143 29.6884 10.5192 25.5931 10.5192 20.4997C10.5192 15.4062 14.6143 11.311 19.7075 11.311C24.8008 11.311 28.8958 15.4062 28.8958 20.4997C28.8958 25.5931 24.8008 29.6884 19.7075 29.6884ZM29.2797 13.0771C28.1024 13.0771 27.1298 12.13 27.1298 10.9271C27.1298 9.72408 28.0768 8.77706 29.2797 8.77706C30.4826 8.77706 31.4296 9.72408 31.4296 10.9271C31.4361 11.2074 31.3849 11.4861 31.2793 11.7459C31.1736 12.0057 31.0157 12.2409 30.8154 12.4372C30.6191 12.6375 30.3839 12.7954 30.1241 12.9011C29.8644 13.0068 29.5857 13.0579 29.3053 13.0515L29.2797 13.0771Z" fill="white"/>
</svg>
