<svg width="43" height="43" viewBox="0 0 43 43" fill="none" xmlns="http://www.w3.org/2000/svg">
<path d="M30.4583 3.5835C32.8342 3.5835 35.1128 4.52732 36.7928 6.20733C38.4728 7.88734 39.4166 10.1659 39.4166 12.5418V30.4585C39.4166 32.8344 38.4728 35.113 36.7928 36.793C35.1128 38.473 32.8342 39.4168 30.4583 39.4168H12.5416C10.1657 39.4168 7.88716 38.473 6.20715 36.793C4.52713 35.113 3.58331 32.8344 3.58331 30.4585V12.5418C3.58331 10.1659 4.52713 7.88734 6.20715 6.20733C7.88716 4.52732 10.1657 3.5835 12.5416 3.5835H30.4583ZM14.3333 17.9168C13.8581 17.9168 13.4024 18.1056 13.0664 18.4416C12.7304 18.7776 12.5416 19.2333 12.5416 19.7085V28.6668C12.5416 29.142 12.7304 29.5977 13.0664 29.9337C13.4024 30.2697 13.8581 30.4585 14.3333 30.4585C14.8085 30.4585 15.2642 30.2697 15.6002 29.9337C15.9362 29.5977 16.125 29.142 16.125 28.6668V19.7085C16.125 19.2333 15.9362 18.7776 15.6002 18.4416C15.2642 18.1056 14.8085 17.9168 14.3333 17.9168ZM25.0833 17.9168C24.3645 17.9164 23.6529 18.0602 22.9906 18.3397L22.7667 18.4418C22.5161 18.1913 22.1969 18.0207 21.8494 17.9516C21.5019 17.8825 21.1417 17.918 20.8144 18.0536C20.4871 18.1891 20.2073 18.4187 20.0104 18.7133C19.8135 19.0079 19.7084 19.3542 19.7083 19.7085V28.6668C19.7083 29.142 19.8971 29.5977 20.2331 29.9337C20.5691 30.2697 21.0248 30.4585 21.5 30.4585C21.9752 30.4585 22.4309 30.2697 22.7669 29.9337C23.1029 29.5977 23.2916 29.142 23.2916 28.6668V23.2918C23.2916 22.8166 23.4804 22.3609 23.8164 22.0249C24.1524 21.6889 24.6081 21.5002 25.0833 21.5002C25.5585 21.5002 26.0142 21.6889 26.3502 22.0249C26.6862 22.3609 26.875 22.8166 26.875 23.2918V28.6668C26.875 29.142 27.0637 29.5977 27.3997 29.9337C27.7357 30.2697 28.1915 30.4585 28.6666 30.4585C29.1418 30.4585 29.5975 30.2697 29.9335 29.9337C30.2695 29.5977 30.4583 29.142 30.4583 28.6668V23.2918C30.4583 21.8663 29.892 20.4991 28.884 19.4911C27.876 18.4831 26.5089 17.9168 25.0833 17.9168ZM14.3333 12.5418C13.8945 12.5419 13.4709 12.703 13.143 12.9946C12.815 13.2862 12.6055 13.688 12.5542 14.1239L12.5416 14.3514C12.5422 14.8081 12.717 15.2473 13.0305 15.5794C13.344 15.9114 13.7724 16.1112 14.2283 16.138C14.6842 16.1648 15.1331 16.0165 15.4833 15.7234C15.8334 15.4303 16.0585 15.0145 16.1124 14.561L16.125 14.3335C16.125 13.8583 15.9362 13.4026 15.6002 13.0666C15.2642 12.7306 14.8085 12.5418 14.3333 12.5418Z" fill="white"/>
</svg>
