<svg width="39" height="36" viewBox="0 0 39 36" fill="none" xmlns="http://www.w3.org/2000/svg">
<path d="M38.6667 8.4165V28.159C38.6668 29.7551 38.1113 31.2909 37.1138 32.4522C36.1164 33.6135 34.7525 34.3124 33.3011 34.4061L32.9667 34.4165H6.36669C4.91279 34.4166 3.51381 33.8068 2.45599 32.7118C1.39817 31.6168 0.761483 30.1194 0.676187 28.5261L0.666687 28.159V8.4165L18.6122 21.551L18.8326 21.6887C19.0923 21.828 19.3776 21.9004 19.6667 21.9004C19.9558 21.9004 20.241 21.828 20.5008 21.6887L20.7212 21.551L38.6667 8.4165Z" fill="white"/>
<path d="M32.8535 1.4165C34.888 1.4165 36.672 2.58618 37.6667 4.34481L19.6667 17.4165L1.66669 4.34481C2.13914 3.50925 2.78811 2.80884 3.55951 2.30195C4.3309 1.79507 5.20236 1.49641 6.10122 1.43087L6.47987 1.4165H32.8535Z" fill="white"/>
</svg>
