<svg width="43" height="43" viewBox="0 0 43 43" fill="none" xmlns="http://www.w3.org/2000/svg">
<path d="M21.5 3.5835C17.9564 3.5835 14.4924 4.63429 11.546 6.603C8.59964 8.57171 6.30322 11.3699 4.94715 14.6438C3.59108 17.9176 3.23627 21.52 3.92758 24.9955C4.6189 28.471 6.3253 31.6635 8.83099 34.1692C11.3367 36.6748 14.5291 38.3812 18.0046 39.0726C21.4801 39.7639 25.0826 39.4091 28.3564 38.053C31.6302 36.6969 34.4284 34.4005 36.3971 31.4541C38.3659 28.5077 39.4167 25.0437 39.4167 21.5002C39.4119 16.7498 37.5227 12.1954 34.1637 8.8364C30.8047 5.47741 26.2503 3.58824 21.5 3.5835ZM32.1407 17.4026V18.56C32.1407 18.6486 32.123 18.7363 32.0886 18.8179C32.0541 18.8996 32.0037 18.9734 31.9402 19.0352C31.8768 19.097 31.8016 19.1455 31.7191 19.1777C31.6365 19.21 31.5484 19.2253 31.4599 19.223C29.5681 19.0893 27.7583 18.3986 26.2587 17.2378V25.7088C26.2582 26.6463 26.0711 27.5744 25.7081 28.4388C25.3451 29.3032 24.8136 30.0866 24.1445 30.7434C23.4699 31.4173 22.6677 31.9498 21.7847 32.3098C20.9018 32.6697 19.9559 32.8499 19.0024 32.8396C17.0851 32.8368 15.2448 32.0845 13.8747 30.7434C13.0028 29.8644 12.3748 28.7736 12.0525 27.5782C11.7302 26.3829 11.7246 25.1242 12.0364 23.9261C12.3213 22.7758 12.8964 21.7187 13.708 20.857C14.3133 20.1171 15.0763 19.522 15.9411 19.115C16.806 18.7079 17.7509 18.4994 18.7068 18.5045H20.1759V21.5557C20.1766 21.6443 20.1583 21.7321 20.1224 21.8131C20.0865 21.8941 20.0337 21.9665 19.9676 22.0255C19.9015 22.0845 19.8235 22.1287 19.739 22.1552C19.6544 22.1817 19.5652 22.1899 19.4772 22.1792C18.6242 21.923 17.705 22.008 16.9134 22.4163C16.1218 22.8245 15.5197 23.5242 15.2339 24.3678C14.9481 25.2114 15.0011 26.133 15.3815 26.9383C15.762 27.7436 16.4403 28.3698 17.2734 28.6847C17.7572 28.9625 18.2983 29.1255 18.8537 29.1631C19.2837 29.181 19.7137 29.1273 20.1222 28.9983C20.8042 28.7682 21.3973 28.3311 21.819 27.7478C22.2407 27.1646 22.4699 26.4643 22.4747 25.7446V10.3094C22.4747 10.1387 22.5424 9.97487 22.6629 9.85396C22.7835 9.73305 22.9471 9.66489 23.1179 9.66441H25.6531C25.8178 9.66462 25.9762 9.72783 26.0958 9.8411C26.2154 9.95437 26.2871 10.1091 26.2963 10.2736C26.3887 11.0641 26.6398 11.8279 27.0345 12.519C27.4291 13.2102 27.9593 13.8145 28.5932 14.2959C29.4498 14.9389 30.4671 15.3332 31.5333 15.4354C31.693 15.449 31.8423 15.5201 31.9537 15.6354C32.065 15.7507 32.1308 15.9024 32.1389 16.0625L32.1407 17.4026Z" fill="white"/>
</svg>
