<svg width="1728" height="1582" viewBox="0 0 1728 1582" fill="none" xmlns="http://www.w3.org/2000/svg">
<path d="M169.18 256.885L-203.823 485.694C-243.803 510.219 -266.649 549.489 -264.907 590.69L-216.731 1730.21C-212.223 1836.82 -59.1899 1890.19 35.9178 1818.32L157.617 1726.36C235.029 1667.86 359.503 1695.4 391.445 1778.1C419.598 1850.98 522.136 1883.3 601.601 1844.34L1005.6 1646.28C1060.62 1619.3 1130.18 1623.97 1179.26 1657.94L1311.19 1749.25C1367.51 1788.22 1449.47 1788.01 1505.48 1748.74L1919.14 1458.8C1945.78 1440.12 1963.8 1414.38 1970.13 1385.93L2154.9 555.826C2159.43 535.506 2169.95 516.431 2185.53 500.301L2242.86 440.951C2293.07 388.98 2285.41 313.525 2225.42 269.244L1903.63 31.6957C1845.76 -11.0241 1758.27 -10.5011 1701.15 32.9062L1474.12 205.431C1410.32 253.915 1310.51 248.115 1255.5 192.728L1180.9 117.63C1120.5 56.8143 1008.14 56.8172 947.739 117.637L751.94 314.787C706.951 360.087 630.036 373.404 566.932 346.818L327.432 245.916C276.433 224.429 215.165 228.676 169.18 256.885Z" fill="#AEA433"/>
</svg>
